{
  "source": "C:\\Users\\Peter\\Desktop\\stuff\\MIUN\\quantitative_research\\video_compression\\videos\\BVI-HD\\BVI-HD_CDVL_videos\\ORIG\\SmokeGuns_1920x1080_60fps.mp4",
  "output": "C:\\Users\\Peter\\Desktop\\stuff\\MIUN\\quantitative_research\\video_compression\\compressed_videos\\BVI-HD\\av1\\2.5\\SmokeGuns_1920x1080_60fps_av1.mkv",
  "codec": "av1",
  "ok": "Input #0, mov,mp4,m4a,3gp,3g2,mj2, from 'C:\\Users\\Peter\\Desktop\\stuff\\MIUN\\quantitative_research\\video_compression\\videos\\BVI-HD\\BVI-HD_CDVL_videos\\ORIG\\SmokeGuns_1920x1080_60fps.mp4':\n  Metadata:\n    major_brand     : isom\n    minor_version   : 512\n    compatible_brands: isomiso2avc1mp41\n    encoder         : Lavf54.28.101\n  Duration: 00:00:05.00, start: 0.000000, bitrate: 384353 kb/s\n  Stream #0:0[0x1](und): Video: h264 (High 4:4:4 Predictive) (avc1 / 0x31637661), yuv420p(progressive), 1920x1080, 384348 kb/s, 60 fps, 60 tbr, 60 tbn (default)\n    Metadata:\n      handler_name    : VideoHandler\n      vendor_id       : [0][0][0][0]\n[out#0/matroska @ 00000200775296c0] Codec AVOption b:a (set bitrate (in bits/s)) has not been used for any stream. The most likely reason is either wrong type (e.g. a video option with no video streams) or that it is a private option of some decoder which was not actually used for any stream.\nStream mapping:\n  Stream #0:0 -> #0:0 (h264 (native) -> av1 (libsvtav1))\nPress [q] to stop, [?] for help\nSvt[info]: -------------------------------------------\nSvt[info]: SVT [version]:\tSVT-AV1 Encoder Lib v3.1.0-19-g6ecfe8ec\nSvt[info]: SVT [build]  :\tGCC 15.2.0\t 64 bit\nSvt[info]: LIB Build date: Aug 17 2025 11:37:13\nSvt[info]: -------------------------------------------\nSvt[info]: Level of Parallelism: 5\nSvt[info]: Number of PPCS 93\nSvt[info]: [asm level on system : up to avx2]\nSvt[info]: [asm level selected : up to avx2]\nSvt[info]: -------------------------------------------\nSvt[info]: SVT [config]: main profile\ttier (auto)\tlevel (auto)\nSvt[info]: SVT [config]: width / height / fps numerator / fps denominator \t\t: 1920 / 1080 / 60 / 1\nSvt[info]: SVT [config]: bit-depth / color format \t\t\t\t\t: 8 / YUV420\nSvt[info]: SVT [config]: preset / tune / pred struct \t\t\t\t\t: 4 / PSNR / random access\nSvt[info]: SVT [config]: gop size / mini-gop size / key-frame type \t\t\t: 321 / 16 / key frame\nSvt[info]: SVT [config]: BRC mode / target bitrate (kbps)\t\t\t\t: VBR / 2500 \nSvt[info]: SVT [config]: AQ mode / Variance Boost \t\t\t\t\t: 2 / 0\nSvt[info]: SVT [config]: sharpness / luminance-based QP bias \t\t\t\t: 0 / 0\nSvt[info]: SVT [config]: QP scale compress strength \t\t\t\t\t: 0\nSvt[info]: -------------------------------------------\nOutput #0, matroska, to 'C:\\Users\\Peter\\Desktop\\stuff\\MIUN\\quantitative_research\\video_compression\\compressed_videos\\BVI-HD\\av1\\2.5\\SmokeGuns_1920x1080_60fps_av1.mkv':\n  Metadata:\n    major_brand     : isom\n    minor_version   : 512\n    compatible_brands: isomiso2avc1mp41\n    encoder         : Lavf62.3.100\n  Stream #0:0(und): Video: av1 (AV01 / 0x31305641), yuv420p(tv, progressive), 1920x1080, q=2-31, 2500 kb/s, 60 fps, 1k tbn (default)\n    Metadata:\n      encoder         : Lavc62.11.100 libsvtav1\n      handler_name    : VideoHandler\n      vendor_id       : [0][0][0][0]\n    Side data:\n      cpb: bitrate max/min/avg: 0/0/2500000 buffer size: 2500000 vbv_delay: N/A\nframe=    0 fps=0.0 q=0.0 size=       0KiB time=N/A bitrate=N/A speed=N/A elapsed=0:00:01.02    \nframe=    0 fps=0.0 q=0.0 size=       0KiB time=N/A bitrate=N/A speed=N/A elapsed=0:00:01.56    \nframe=    0 fps=0.0 q=0.0 size=       0KiB time=N/A bitrate=N/A speed=N/A elapsed=0:00:02.09    \nframe=    0 fps=0.0 q=0.0 size=       0KiB time=N/A bitrate=N/A speed=N/A elapsed=0:00:02.63    \nframe=    0 fps=0.0 q=0.0 size=       0KiB time=N/A bitrate=N/A speed=N/A elapsed=0:00:03.14    \nframe=    1 fps=0.3 q=17.0 size=       1KiB time=00:00:00.00 bitrate=N/A speed=   0x elapsed=0:00:03.66    \nframe=    1 fps=0.2 q=17.0 size=       1KiB time=00:00:00.00 bitrate=N/A speed=   0x elapsed=0:00:04.19    \nframe=    4 fps=0.8 q=44.0 size=       1KiB time=00:00:00.05 bitrate= 113.9kbits/s speed=0.0106x elapsed=0:00:04.72    \nframe=   11 fps=2.1 q=40.0 size=       1KiB time=00:00:00.16 bitrate=  34.2kbits/s speed=0.0315x elapsed=0:00:05.28    \nframe=   18 fps=3.1 q=37.0 size=       1KiB time=00:00:00.28 bitrate=  20.1kbits/s speed=0.0481x elapsed=0:00:05.88    \nframe=   24 fps=3.7 q=36.0 size=       1KiB time=00:00:00.38 bitrate=  14.9kbits/s speed=0.0597x elapsed=0:00:06.42    \nframe=   31 fps=4.4 q=37.0 size=       1KiB time=00:00:00.50 bitrate=  11.4kbits/s speed=0.0715x elapsed=0:00:06.98    \nframe=   37 fps=4.9 q=39.0 size=       1KiB time=00:00:00.58 bitrate=   9.8kbits/s speed=0.0775x elapsed=0:00:07.53    \nframe=   42 fps=5.2 q=29.0 size=       1KiB time=00:00:00.68 bitrate=   8.3kbits/s speed=0.0847x elapsed=0:00:08.07    \nframe=   50 fps=5.8 q=34.0 size=       1KiB time=00:00:00.80 bitrate=   7.1kbits/s speed=0.0928x elapsed=0:00:08.62    \nframe=   54 fps=5.9 q=32.0 size=       1KiB time=00:00:00.88 bitrate=   6.4kbits/s speed=0.0963x elapsed=0:00:09.17    \nframe=   59 fps=6.1 q=36.0 size=       1KiB time=00:00:00.96 bitrate=   5.9kbits/s speed=0.0996x elapsed=0:00:09.70    \nframe=   65 fps=6.3 q=17.0 size=       1KiB time=00:00:01.06 bitrate=   5.3kbits/s speed=0.104x elapsed=0:00:10.24    \nframe=   69 fps=6.4 q=39.0 size=       1KiB time=00:00:01.13 bitrate=   5.0kbits/s speed=0.105x elapsed=0:00:10.75    \nframe=   73 fps=6.5 q=35.0 size=       1KiB time=00:00:01.20 bitrate=   4.7kbits/s speed=0.106x elapsed=0:00:11.27    \nframe=   79 fps=6.7 q=37.0 size=       1KiB time=00:00:01.30 bitrate=   4.4kbits/s speed=0.11x elapsed=0:00:11.79    \nframe=   84 fps=6.8 q=31.0 size=       1KiB time=00:00:01.38 bitrate=   4.1kbits/s speed=0.112x elapsed=0:00:12.35    \nframe=   89 fps=6.9 q=35.0 size=       1KiB time=00:00:01.46 bitrate=   3.9kbits/s speed=0.114x elapsed=0:00:12.86    \nframe=   95 fps=7.1 q=38.0 size=       1KiB time=00:00:01.56 bitrate=   3.6kbits/s speed=0.117x elapsed=0:00:13.38    \nframe=  101 fps=7.3 q=39.0 size=       1KiB time=00:00:01.66 bitrate=   3.4kbits/s speed=0.12x elapsed=0:00:13.92    \nframe=  107 fps=7.4 q=38.0 size=       1KiB time=00:00:01.76 bitrate=   3.2kbits/s speed=0.122x elapsed=0:00:14.47    \nframe=  113 fps=7.5 q=16.0 size=       1KiB time=00:00:01.86 bitrate=   3.1kbits/s speed=0.124x elapsed=0:00:15.01    \nframe=  119 fps=7.7 q=38.0 size=       1KiB time=00:00:01.96 bitrate=   2.9kbits/s speed=0.127x elapsed=0:00:15.54    \nframe=  127 fps=7.9 q=38.0 size=       1KiB time=00:00:02.10 bitrate=   2.7kbits/s speed=0.131x elapsed=0:00:16.07    \nframe=  133 fps=8.0 q=39.0 size=       1KiB time=00:00:02.20 bitrate=   2.6kbits/s speed=0.132x elapsed=0:00:16.61    \nframe=  139 fps=8.1 q=37.0 size=       1KiB time=00:00:02.30 bitrate=   2.5kbits/s speed=0.134x elapsed=0:00:17.13    \nframe=  145 fps=8.2 q=18.0 size=       1KiB time=00:00:02.40 bitrate=   2.4kbits/s speed=0.136x elapsed=0:00:17.67    \nframe=  151 fps=8.3 q=37.0 size=       1KiB time=00:00:02.50 bitrate=   2.3kbits/s speed=0.137x elapsed=0:00:18.22    \nframe=  157 fps=8.4 q=39.0 size=       1KiB time=00:00:02.60 bitrate=   2.2kbits/s speed=0.139x elapsed=0:00:18.74    \nframe=  163 fps=8.5 q=36.0 size=       1KiB time=00:00:02.68 bitrate=   2.1kbits/s speed=0.139x elapsed=0:00:19.28    \nframe=  168 fps=8.5 q=34.0 size=       1KiB time=00:00:02.78 bitrate=   2.0kbits/s speed=0.14x elapsed=0:00:19.82    \nframe=  175 fps=8.6 q=37.0 size=       1KiB time=00:00:02.90 bitrate=   2.0kbits/s speed=0.143x elapsed=0:00:20.33    \nframe=  181 fps=8.7 q=38.0 size=       1KiB time=00:00:03.00 bitrate=   1.9kbits/s speed=0.144x elapsed=0:00:20.85    \nframe=  185 fps=8.7 q=33.0 size=       1KiB time=00:00:03.06 bitrate=   1.9kbits/s speed=0.143x elapsed=0:00:21.37    \nframe=  193 fps=8.8 q=19.0 size=       1KiB time=00:00:03.20 bitrate=   1.8kbits/s speed=0.146x elapsed=0:00:21.90    \nframe=  200 fps=8.9 q=34.0 size=       1KiB time=00:00:03.30 bitrate=   1.7kbits/s speed=0.147x elapsed=0:00:22.42    \nframe=  209 fps=9.1 q=18.0 size=       1KiB time=00:00:03.43 bitrate=   1.7kbits/s speed=0.15x elapsed=0:00:22.95    \nframe=  215 fps=9.2 q=35.0 size=       1KiB time=00:00:03.56 bitrate=   1.6kbits/s speed=0.152x elapsed=0:00:23.48    \nframe=  221 fps=9.2 q=38.0 size=       1KiB time=00:00:03.66 bitrate=   1.6kbits/s speed=0.153x elapsed=0:00:24.01    \nframe=  229 fps=9.3 q=38.0 size=       1KiB time=00:00:03.80 bitrate=   1.5kbits/s speed=0.155x elapsed=0:00:24.52    \nframe=  235 fps=9.4 q=35.0 size=       1KiB time=00:00:03.90 bitrate=   1.5kbits/s speed=0.156x elapsed=0:00:25.05    \nframe=  245 fps=9.6 q=37.0 size=       1KiB time=00:00:04.03 bitrate=   1.4kbits/s speed=0.158x elapsed=0:00:25.58    \nframe=  249 fps=9.5 q=32.0 size=       1KiB time=00:00:04.13 bitrate=   1.4kbits/s speed=0.158x elapsed=0:00:26.14    \nframe=  257 fps=9.6 q=17.0 size=       1KiB time=00:00:04.26 bitrate=   1.3kbits/s speed=0.16x elapsed=0:00:26.68    \nframe=  261 fps=9.6 q=36.0 size=       1KiB time=00:00:04.33 bitrate=   1.3kbits/s speed=0.159x elapsed=0:00:27.21    \nframe=  265 fps=9.5 q=32.0 size=       1KiB time=00:00:04.40 bitrate=   1.3kbits/s speed=0.158x elapsed=0:00:27.86    \nframe=  269 fps=9.4 q=35.0 size=       1KiB time=00:00:04.46 bitrate=   1.3kbits/s speed=0.157x elapsed=0:00:28.47    \nframe=  273 fps=9.4 q=17.0 size=       1KiB time=00:00:04.50 bitrate=   1.3kbits/s speed=0.155x elapsed=0:00:29.11    \nframe=  275 fps=9.3 q=33.0 size=       1KiB time=00:00:04.56 bitrate=   1.2kbits/s speed=0.154x elapsed=0:00:29.68    \nframe=  279 fps=9.2 q=33.0 size=       1KiB time=00:00:04.63 bitrate=   1.2kbits/s speed=0.153x elapsed=0:00:30.25    \nframe=  281 fps=9.1 q=31.0 size=       1KiB time=00:00:04.66 bitrate=   1.2kbits/s speed=0.151x elapsed=0:00:30.82    \nframe=  285 fps=9.1 q=37.0 size=       1KiB time=00:00:04.73 bitrate=   1.2kbits/s speed=0.151x elapsed=0:00:31.42    \n[out#0/matroska @ 00000200775296c0] video:1495KiB audio:0KiB subtitle:0KiB other streams:0KiB global headers:0KiB muxing overhead: 0.138898%\nframe=  300 fps=9.4 q=43.0 Lsize=    1498KiB time=00:00:04.98 bitrate=2461.8kbits/s speed=0.156x elapsed=0:00:31.90    \n",
  "seconds": 32.548097372055054,
  "probe_out": {}
}